<svg xmlns="http://www.w3.org/2000/svg" width="800" height="600" data-software-used-string="@tscircuit/core@0.0.765"><style></style><rect class="boundary" x="0" y="0" fill="#000" width="800" height="600"/><rect class="pcb-boundary" fill="none" stroke="#fff" stroke-width="0.3" x="144.39224301849566" y="16.91390096266568" width="511.2155139630086" height="566.1721980746687"/><path class="pcb-board" d="M 505.243177423407 16.91390096266568 L 625.1627352487062 16.91390096266568 L 631.1022643423458 17.498893518378935 L 636.8135406638432 19.231390249670312 L 642.0770830670838 22.04481227875158 L 646.6906165693396 25.83104137483045 L 650.4768456654184 30.444574877086296 L 653.2902676944998 35.70811728032686 L 655.0227644257911 41.41939360182417 L 655.6077569815043 47.358922695463775 L 655.6077569815043 343.35218954211206 L 655.0227644257911 349.29171863575164 L 653.2902676944998 355.002994957249 L 650.4768456654184 360.26653736048956 L 646.6906165693396 364.88007086274536 L 642.0770830670838 368.66629995882425 L 636.8135406638432 371.4797219879055 L 631.1022643423458 373.2122187191969 L 625.1627352487062 373.7972112749102 L 385.3236195981078 373.7972112749102 L 379.3840905044682 373.2122187191969 L 373.6728141829709 371.4797219879055 L 368.40927177973026 368.66629995882425 L 363.79573827747447 364.8800708627454 L 360.00950918139563 360.26653736048956 L 357.1960871523143 355.002994957249 L 355.46359042102296 349.29171863575164 L 354.8785978653097 343.35218954211206 L 354.8785978653097 47.358922695463775 L 355.46359042102296 41.41939360182417 L 357.1960871523143 35.70811728032686 L 360.00950918139563 30.444574877086296 L 363.79573827747447 25.83104137483042 L 368.40927177973026 22.04481227875158 L 373.6728141829709 19.231390249670312 L 379.3840905044682 17.498893518378935 L 385.3236195981078 16.91390096266568 L 505.243177423407 16.91390096266568 Z" fill="none" stroke="rgba(255, 255, 255, 0.5)" stroke-width="1.6913900962665616"/><circle class="pcb-pad" fill="rgb(200, 52, 52)" cx="260.3201202166058" cy="189.5292229627892" r="9.666294400163398" data-layer="top"/><circle class="pcb-pad" fill="rgb(200, 52, 52)" cx="303.2814286617765" cy="189.5292229627892" r="9.666294400163398" data-layer="top"/><circle class="pcb-pad" fill="rgb(200, 52, 52)" cx="260.3201202166058" cy="232.49053140795985" r="9.666294400163398" data-layer="top"/><circle class="pcb-pad" fill="rgb(200, 52, 52)" cx="303.2814286617765" cy="232.49053140795985" r="9.666294400163398" data-layer="top"/><rect class="pcb-pad" fill="rgb(200, 52, 52)" x="296.82031849403825" y="458.90000969420174" width="17.184523378068263" height="34.36904675613653" data-layer="top"/><rect class="pcb-pad" fill="rgb(200, 52, 52)" x="253.8590100488676" y="458.90000969420174" width="17.184523378068263" height="34.36904675613653" data-layer="top"/><rect class="pcb-pad" fill="rgb(200, 52, 52)" x="435.8935296854168" y="145.43720839853168" width="18.605253848350056" height="3.3827734269727374" data-layer="top"/><rect class="pcb-pad" fill="rgb(200, 52, 52)" x="435.8935296854168" y="152.20361447864738" width="18.605253848350056" height="3.3827734269727374" data-layer="top"/><rect class="pcb-pad" fill="rgb(200, 52, 52)" x="435.8935296854168" y="158.97002055876115" width="18.605253848350056" height="3.3827734269727374" data-layer="top"/><rect class="pcb-pad" fill="rgb(200, 52, 52)" x="435.8935296854168" y="165.73642663887685" width="18.605253848350056" height="3.3827734269727374" data-layer="top"/><rect class="pcb-pad" fill="rgb(200, 52, 52)" x="435.8935296854168" y="172.49853658814544" width="18.605253848350056" height="3.3827734269727374" data-layer="top"/><rect class="pcb-pad" fill="rgb(200, 52, 52)" x="435.8935296854168" y="179.26494266826114" width="18.605253848350056" height="3.3827734269727374" data-layer="top"/><rect class="pcb-pad" fill="rgb(200, 52, 52)" x="435.8935296854168" y="186.03134874837494" width="18.605253848350056" height="3.3827734269727374" data-layer="top"/><rect class="pcb-pad" fill="rgb(200, 52, 52)" x="435.8935296854168" y="192.79775482849064" width="18.605253848350056" height="3.3827734269727374" data-layer="top"/><rect class="pcb-pad" fill="rgb(200, 52, 52)" x="435.8935296854168" y="199.5641609086044" width="18.605253848350056" height="3.3827734269727374" data-layer="top"/><rect class="pcb-pad" fill="rgb(200, 52, 52)" x="435.8935296854168" y="206.3262708578749" width="18.605253848350056" height="3.3827734269727374" data-layer="top"/><rect class="pcb-pad" fill="rgb(200, 52, 52)" x="435.8935296854168" y="213.0926769379887" width="18.605253848350056" height="3.3827734269727374" data-layer="top"/><rect class="pcb-pad" fill="rgb(200, 52, 52)" x="435.8935296854168" y="219.85908301810247" width="18.605253848350056" height="3.3827734269727374" data-layer="top"/><rect class="pcb-pad" fill="rgb(200, 52, 52)" x="435.8935296854168" y="226.62548909821626" width="18.605253848350056" height="3.3827734269727374" data-layer="top"/><rect class="pcb-pad" fill="rgb(200, 52, 52)" x="435.8935296854168" y="233.39189517833003" width="18.605253848350056" height="3.3827734269727374" data-layer="top"/><rect class="pcb-pad" fill="rgb(200, 52, 52)" x="459.576595385445" y="241.84818432613767" width="3.3827734269727374" height="18.605253848350056" data-layer="top"/><rect class="pcb-pad" fill="rgb(200, 52, 52)" x="466.3387053347136" y="241.84818432613767" width="3.3827734269727374" height="18.605253848350056" data-layer="top"/><rect class="pcb-pad" fill="rgb(200, 52, 52)" x="473.1051114148293" y="241.84818432613767" width="3.3827734269727374" height="18.605253848350056" data-layer="top"/><rect class="pcb-pad" fill="rgb(200, 52, 52)" x="479.8715174949392" y="241.84818432613767" width="3.3827734269727374" height="18.605253848350056" data-layer="top"/><rect class="pcb-pad" fill="rgb(200, 52, 52)" x="486.63792357505685" y="241.84818432613767" width="3.3827734269727374" height="18.605253848350056" data-layer="top"/><rect class="pcb-pad" fill="rgb(200, 52, 52)" x="493.4043296551706" y="241.84818432613767" width="3.3827734269727374" height="18.605253848350056" data-layer="top"/><rect class="pcb-pad" fill="rgb(200, 52, 52)" x="500.1664396044411" y="241.84818432613767" width="3.3827734269727374" height="18.605253848350056" data-layer="top"/><rect class="pcb-pad" fill="rgb(200, 52, 52)" x="506.93284568455493" y="241.84818432613767" width="3.3827734269727374" height="18.605253848350056" data-layer="top"/><rect class="pcb-pad" fill="rgb(200, 52, 52)" x="513.6992517646687" y="241.84818432613767" width="3.3827734269727374" height="18.605253848350056" data-layer="top"/><rect class="pcb-pad" fill="rgb(200, 52, 52)" x="520.4656578447843" y="241.84818432613767" width="3.3827734269727374" height="18.605253848350056" data-layer="top"/><rect class="pcb-pad" fill="rgb(200, 52, 52)" x="527.2320639248982" y="241.84818432613767" width="3.3827734269727374" height="18.605253848350056" data-layer="top"/><rect class="pcb-pad" fill="rgb(200, 52, 52)" x="533.9941738741707" y="241.84818432613767" width="3.3827734269727374" height="18.605253848350056" data-layer="top"/><rect class="pcb-pad" fill="rgb(200, 52, 52)" x="540.7605799542805" y="241.84818432613767" width="3.3827734269727374" height="18.605253848350056" data-layer="top"/><rect class="pcb-pad" fill="rgb(200, 52, 52)" x="547.5269860343963" y="241.84818432613767" width="3.3827734269727374" height="18.605253848350056" data-layer="top"/><rect class="pcb-pad" fill="rgb(200, 52, 52)" x="555.9875713130473" y="233.39189517833003" width="18.605253848350056" height="3.3827734269727374" data-layer="top"/><rect class="pcb-pad" fill="rgb(200, 52, 52)" x="555.9875713130473" y="226.62548909821626" width="18.605253848350056" height="3.3827734269727374" data-layer="top"/><rect class="pcb-pad" fill="rgb(200, 52, 52)" x="555.9875713130473" y="219.85908301810247" width="18.605253848350056" height="3.3827734269727374" data-layer="top"/><rect class="pcb-pad" fill="rgb(200, 52, 52)" x="555.9875713130473" y="213.0926769379887" width="18.605253848350056" height="3.3827734269727374" data-layer="top"/><rect class="pcb-pad" fill="rgb(200, 52, 52)" x="555.9875713130473" y="206.3262708578749" width="18.605253848350056" height="3.3827734269727374" data-layer="top"/><rect class="pcb-pad" fill="rgb(200, 52, 52)" x="555.9875713130473" y="199.5641609086044" width="18.605253848350056" height="3.3827734269727374" data-layer="top"/><rect class="pcb-pad" fill="rgb(200, 52, 52)" x="555.9875713130473" y="192.79775482849064" width="18.605253848350056" height="3.3827734269727374" data-layer="top"/><rect class="pcb-pad" fill="rgb(200, 52, 52)" x="555.9875713130473" y="186.03134874837494" width="18.605253848350056" height="3.3827734269727374" data-layer="top"/><rect class="pcb-pad" fill="rgb(200, 52, 52)" x="555.9875713130473" y="179.26494266826114" width="18.605253848350056" height="3.3827734269727374" data-layer="top"/><rect class="pcb-pad" fill="rgb(200, 52, 52)" x="555.9875713130473" y="172.49853658814544" width="18.605253848350056" height="3.3827734269727374" data-layer="top"/><rect class="pcb-pad" fill="rgb(200, 52, 52)" x="555.9875713130473" y="165.73642663887685" width="18.605253848350056" height="3.3827734269727374" data-layer="top"/><rect class="pcb-pad" fill="rgb(200, 52, 52)" x="555.9875713130473" y="158.97002055876115" width="18.605253848350056" height="3.3827734269727374" data-layer="top"/><rect class="pcb-pad" fill="rgb(200, 52, 52)" x="555.9875713130473" y="152.20361447864738" width="18.605253848350056" height="3.3827734269727374" data-layer="top"/><rect class="pcb-pad" fill="rgb(200, 52, 52)" x="555.9875713130473" y="145.43720839853168" width="18.605253848350056" height="3.3827734269727374" data-layer="top"/><rect class="pcb-pad" fill="rgb(200, 52, 52)" x="547.5269860343963" y="121.75843882935055" width="3.3827734269727374" height="18.605253848350056" data-layer="top"/><rect class="pcb-pad" fill="rgb(200, 52, 52)" x="540.7605799542805" y="121.75843882935055" width="3.3827734269727374" height="18.605253848350056" data-layer="top"/><rect class="pcb-pad" fill="rgb(200, 52, 52)" x="533.9941738741707" y="121.75843882935055" width="3.3827734269727374" height="18.605253848350056" data-layer="top"/><rect class="pcb-pad" fill="rgb(200, 52, 52)" x="527.2320639248982" y="121.75843882935055" width="3.3827734269727374" height="18.605253848350056" data-layer="top"/><rect class="pcb-pad" fill="rgb(200, 52, 52)" x="520.4656578447843" y="121.75843882935055" width="3.3827734269727374" height="18.605253848350056" data-layer="top"/><rect class="pcb-pad" fill="rgb(200, 52, 52)" x="513.6992517646687" y="121.75843882935055" width="3.3827734269727374" height="18.605253848350056" data-layer="top"/><rect class="pcb-pad" fill="rgb(200, 52, 52)" x="506.93284568455493" y="121.75843882935055" width="3.3827734269727374" height="18.605253848350056" data-layer="top"/><rect class="pcb-pad" fill="rgb(200, 52, 52)" x="500.1664396044411" y="121.75843882935055" width="3.3827734269727374" height="18.605253848350056" data-layer="top"/><rect class="pcb-pad" fill="rgb(200, 52, 52)" x="493.4043296551706" y="121.75843882935055" width="3.3827734269727374" height="18.605253848350056" data-layer="top"/><rect class="pcb-pad" fill="rgb(200, 52, 52)" x="486.63792357505685" y="121.75843882935055" width="3.3827734269727374" height="18.605253848350056" data-layer="top"/><rect class="pcb-pad" fill="rgb(200, 52, 52)" x="479.8715174949392" y="121.75843882935055" width="3.3827734269727374" height="18.605253848350056" data-layer="top"/><rect class="pcb-pad" fill="rgb(200, 52, 52)" x="473.1051114148293" y="121.75843882935055" width="3.3827734269727374" height="18.605253848350056" data-layer="top"/><rect class="pcb-pad" fill="rgb(200, 52, 52)" x="466.3387053347136" y="121.75843882935055" width="3.3827734269727374" height="18.605253848350056" data-layer="top"/><rect class="pcb-pad" fill="rgb(200, 52, 52)" x="459.576595385445" y="121.75843882935055" width="3.3827734269727374" height="18.605253848350056" data-layer="top"/><rect class="pcb-pad" fill="rgb(200, 52, 52)" x="479.02668336436636" y="164.88729637745877" width="52.43298811807744" height="52.43298811807744" data-layer="top"/><rect class="pcb-pad" fill="rgb(200, 52, 52)" x="504.2624638142264" y="294.281240099819" width="13.531120770132492" height="16.06820591453233" data-layer="top"/><rect class="pcb-pad" fill="rgb(200, 52, 52)" x="476.3545272258281" y="294.281240099819" width="13.531120770132492" height="16.06820591453233" data-layer="top"/><rect class="pcb-pad" fill="rgb(200, 52, 52)" x="504.11786814657137" y="344.17724793968256" width="13.531120770132492" height="16.06820591453233" data-layer="top"/><rect class="pcb-pad" fill="rgb(200, 52, 52)" x="476.2099315581731" y="344.17724793968256" width="13.531120770132492" height="16.06820591453233" data-layer="top"/><rect class="pcb-pad" fill="rgb(200, 52, 52)" x="504.042219465448" y="394.07325577954606" width="13.531120770132492" height="16.06820591453233" data-layer="top"/><rect class="pcb-pad" fill="rgb(200, 52, 52)" x="476.1342828770497" y="394.07325577954606" width="13.531120770132492" height="16.06820591453233" data-layer="top"/><rect class="pcb-pad" fill="rgb(200, 52, 52)" x="504.0006531253061" y="443.9692636194097" width="13.531120770132492" height="16.06820591453233" data-layer="top"/><rect class="pcb-pad" fill="rgb(200, 52, 52)" x="476.0927165369078" y="443.9692636194097" width="13.531120770132492" height="16.06820591453233" data-layer="top"/><rect class="pcb-pad" fill="rgb(200, 52, 52)" x="503.97552216541976" y="493.8652714592733" width="13.531120770132492" height="16.06820591453233" data-layer="top"/><rect class="pcb-pad" fill="rgb(200, 52, 52)" x="476.06758557702153" y="493.8652714592733" width="13.531120770132492" height="16.06820591453233" data-layer="top"/><rect class="pcb-pad" fill="rgb(200, 52, 52)" x="503.9561314057912" y="551.795382256403" width="13.531120770132492" height="16.06820591453233" data-layer="top"/><rect class="pcb-pad" fill="rgb(200, 52, 52)" x="476.048194817393" y="551.795382256403" width="13.531120770132492" height="16.06820591453233" data-layer="top"/><rect class="pcb-pad" fill="rgb(200, 52, 52)" x="551.6213865096901" y="295.5497826720189" width="16.06820591453233" height="13.531120770132492" data-layer="top"/><rect class="pcb-pad" fill="rgb(200, 52, 52)" x="551.6213865096901" y="323.4577192604172" width="16.06820591453233" height="13.531120770132492" data-layer="top"/><rect class="pcb-pad" fill="rgb(200, 52, 52)" x="579.3847274304334" y="372.0851845280808" width="13.531120770132492" height="16.06820591453233" data-layer="top"/><rect class="pcb-pad" fill="rgb(200, 52, 52)" x="551.476790842035" y="372.0851845280808" width="13.531120770132492" height="16.06820591453233" data-layer="top"/><rect class="pcb-pad" fill="rgb(200, 52, 52)" x="579.30907874931" y="421.98119236794435" width="13.531120770132492" height="16.06820591453233" data-layer="top"/><rect class="pcb-pad" fill="rgb(200, 52, 52)" x="551.4011421609117" y="421.98119236794435" width="13.531120770132492" height="16.06820591453233" data-layer="top"/><rect class="pcb-pad" fill="rgb(200, 52, 52)" x="531.8384070069321" y="71.86243098948697" width="13.531120770132492" height="16.06820591453233" data-layer="top"/><rect class="pcb-pad" fill="rgb(200, 52, 52)" x="503.9304704185339" y="71.86243098948697" width="13.531120770132492" height="16.06820591453233" data-layer="top"/><rect class="pcb-pad" fill="rgb(200, 52, 52)" x="579.1973297023958" y="73.1309735616869" width="16.06820591453233" height="13.531120770132492" data-layer="top"/><rect class="pcb-pad" fill="rgb(200, 52, 52)" x="579.1973297023958" y="45.22303697328862" width="16.06820591453233" height="13.531120770132492" data-layer="top"/><path class="pcb-silkscreen pcb-silkscreen-top" d="M 450.4254070735391 131.90697391681198 L 450.4254070735391 133.54508860782548 L 446.043353612131 137.92714206923165" fill="none" stroke="#f2eda1" stroke-width="1.6913900962665616" stroke-linecap="round" stroke-linejoin="round" data-pcb-component-id="pcb_component_1" data-pcb-silkscreen-path-id="pcb_silkscreen_path_0"/><path class="pcb-silkscreen pcb-silkscreen-top" d="M 446.043353612131 141.52815894310672 L 455.6653978645936 131.90697391681198" fill="none" stroke="#f2eda1" stroke-width="1.6913900962665616" stroke-linecap="round" stroke-linejoin="round" data-pcb-component-id="pcb_component_1" data-pcb-silkscreen-path-id="pcb_silkscreen_path_1"/><path class="pcb-silkscreen pcb-silkscreen-top" d="M 446.043353612131 141.52815894310672 L 446.043353612131 131.90697391681198" fill="none" stroke="#f2eda1" stroke-width="1.6913900962665616" stroke-linecap="round" stroke-linejoin="round" data-pcb-component-id="pcb_component_1" data-pcb-silkscreen-path-id="pcb_silkscreen_path_2"/><path class="pcb-silkscreen pcb-silkscreen-top" d="M 455.6653978645936 250.3031846346886 L 447.7351699387019 250.3031846346886 L 446.043353612131 250.3031846346886 L 446.043353612131 240.68199960839195" fill="none" stroke="#f2eda1" stroke-width="1.6913900962665616" stroke-linecap="round" stroke-linejoin="round" data-pcb-component-id="pcb_component_1" data-pcb-silkscreen-path-id="pcb_silkscreen_path_3"/><path class="pcb-silkscreen pcb-silkscreen-top" d="M 564.4404235561774 240.68199960839195 L 564.4404235561774 250.3031846346886 L 554.8192385298827 250.3031846346886" fill="none" stroke="#f2eda1" stroke-width="1.6913900962665616" stroke-linecap="round" stroke-linejoin="round" data-pcb-component-id="pcb_component_1" data-pcb-silkscreen-path-id="pcb_silkscreen_path_4"/><path class="pcb-silkscreen pcb-silkscreen-top" d="M 554.8192385298827 131.90697391681198 L 564.4404235561774 131.90697391681198 L 564.4404235561774 141.52815894310672" fill="none" stroke="#f2eda1" stroke-width="1.6913900962665616" stroke-linecap="round" stroke-linejoin="round" data-pcb-component-id="pcb_component_1" data-pcb-silkscreen-path-id="pcb_silkscreen_path_5"/><path class="pcb-silkscreen pcb-silkscreen-top" d="M 446.043353612131 131.90697391681198 L 455.6653978645936 131.90697391681198" fill="none" stroke="#f2eda1" stroke-width="1.6913900962665616" stroke-linecap="round" stroke-linejoin="round" data-pcb-component-id="pcb_component_1" data-pcb-silkscreen-path-id="pcb_silkscreen_path_6"/><path class="pcb-silkscreen pcb-silkscreen-top" d="M 483.12008761089436 317.11500639941755 L 521.176364776892 317.11500639941755 L 521.176364776892 287.51567971475276 L 483.12008761089436 287.51567971475276" fill="none" stroke="#f2eda1" stroke-width="1.6913900962665616" stroke-linecap="round" stroke-linejoin="round" data-pcb-component-id="pcb_component_2" data-pcb-silkscreen-path-id="pcb_silkscreen_path_7"/><path class="pcb-silkscreen pcb-silkscreen-top" d="M 482.9754919432393 367.0110142392811 L 521.031769109237 367.0110142392811 L 521.031769109237 337.41168755461626 L 482.9754919432393 337.41168755461626" fill="none" stroke="#f2eda1" stroke-width="1.6913900962665616" stroke-linecap="round" stroke-linejoin="round" data-pcb-component-id="pcb_component_3" data-pcb-silkscreen-path-id="pcb_silkscreen_path_8"/><path class="pcb-silkscreen pcb-silkscreen-top" d="M 482.89984326211595 416.90702207914467 L 520.9561204281136 416.90702207914467 L 520.9561204281136 387.3076953944799 L 482.89984326211595 387.3076953944799" fill="none" stroke="#f2eda1" stroke-width="1.6913900962665616" stroke-linecap="round" stroke-linejoin="round" data-pcb-component-id="pcb_component_4" data-pcb-silkscreen-path-id="pcb_silkscreen_path_9"/><path class="pcb-silkscreen pcb-silkscreen-top" d="M 482.85827692197404 466.80302991900817 L 520.9145540879717 466.8030299190083 L 520.9145540879717 437.2037032343434 L 482.85827692197404 437.2037032343434" fill="none" stroke="#f2eda1" stroke-width="1.6913900962665616" stroke-linecap="round" stroke-linejoin="round" data-pcb-component-id="pcb_component_5" data-pcb-silkscreen-path-id="pcb_silkscreen_path_10"/><path class="pcb-silkscreen pcb-silkscreen-top" d="M 482.83314596208777 516.6990377588718 L 520.8894231280854 516.6990377588718 L 520.8894231280854 487.099711074207 L 482.83314596208777 487.099711074207" fill="none" stroke="#f2eda1" stroke-width="1.6913900962665616" stroke-linecap="round" stroke-linejoin="round" data-pcb-component-id="pcb_component_6" data-pcb-silkscreen-path-id="pcb_silkscreen_path_11"/><path class="pcb-silkscreen pcb-silkscreen-top" d="M 482.8137552024592 574.6291485560016 L 520.8700323684568 574.6291485560016 L 520.8700323684568 545.0298218713367 L 482.8137552024592 545.0298218713367" fill="none" stroke="#f2eda1" stroke-width="1.6913900962665616" stroke-linecap="round" stroke-linejoin="round" data-pcb-component-id="pcb_component_7" data-pcb-silkscreen-path-id="pcb_silkscreen_path_12"/><path class="pcb-silkscreen pcb-silkscreen-top" d="M 574.4551528092886 330.22327964548344 L 574.4551528092887 292.16700247948575 L 544.8558261246238 292.16700247948575 L 544.8558261246238 330.22327964548344" fill="none" stroke="#f2eda1" stroke-width="1.6913900962665616" stroke-linecap="round" stroke-linejoin="round" data-pcb-component-id="pcb_component_8" data-pcb-silkscreen-path-id="pcb_silkscreen_path_13"/><path class="pcb-silkscreen pcb-silkscreen-top" d="M 558.2423512271013 394.9189508276794 L 596.298628393099 394.9189508276794 L 596.298628393099 365.3196241430145 L 558.2423512271013 365.3196241430145" fill="none" stroke="#f2eda1" stroke-width="1.6913900962665616" stroke-linecap="round" stroke-linejoin="round" data-pcb-component-id="pcb_component_9" data-pcb-silkscreen-path-id="pcb_silkscreen_path_14"/><path class="pcb-silkscreen pcb-silkscreen-top" d="M 558.166702545978 444.8149586675429 L 596.2229797119755 444.8149586675429 L 596.2229797119755 415.2156319828781 L 558.166702545978 415.2156319828781" fill="none" stroke="#f2eda1" stroke-width="1.6913900962665616" stroke-linecap="round" stroke-linejoin="round" data-pcb-component-id="pcb_component_10" data-pcb-silkscreen-path-id="pcb_silkscreen_path_15"/><path class="pcb-silkscreen pcb-silkscreen-top" d="M 510.69603080360014 94.69619728908556 L 548.7523079695977 94.69619728908556 L 548.7523079695977 65.09687060442073 L 510.69603080360014 65.09687060442073" fill="none" stroke="#f2eda1" stroke-width="1.6913900962665616" stroke-linecap="round" stroke-linejoin="round" data-pcb-component-id="pcb_component_11" data-pcb-silkscreen-path-id="pcb_silkscreen_path_16"/><path class="pcb-silkscreen pcb-silkscreen-top" d="M 572.4317693173297 51.988597358354866 L 572.4317693173297 90.04487452435252 L 602.0310960019945 90.04487452435252 L 602.0310960019945 51.988597358354866" fill="none" stroke="#f2eda1" stroke-width="1.6913900962665616" stroke-linecap="round" stroke-linejoin="round" data-pcb-component-id="pcb_component_12" data-pcb-silkscreen-path-id="pcb_silkscreen_path_17"/><text x="0" y="0" dx="0" dy="0" fill="#f2eda1" font-family="Arial, sans-serif" font-size="6.765560385066246" text-anchor="middle" dominant-baseline="central" transform="matrix(1,0,0,1,497.0740559050935,325.57195688075035)" class="pcb-silkscreen-text pcb-silkscreen-top" data-pcb-silkscreen-text-id="pcb_component_2" stroke="none">C12</text><text x="0" y="0" dx="0" dy="0" fill="#f2eda1" font-family="Arial, sans-serif" font-size="6.765560385066246" text-anchor="middle" dominant-baseline="central" transform="matrix(1,0,0,1,496.92946023743843,375.46796472061396)" class="pcb-silkscreen-text pcb-silkscreen-top" data-pcb-silkscreen-text-id="pcb_component_3" stroke="none">C14</text><text x="0" y="0" dx="0" dy="0" fill="#f2eda1" font-family="Arial, sans-serif" font-size="6.765560385066246" text-anchor="middle" dominant-baseline="central" transform="matrix(1,0,0,1,496.8538115563151,425.36397256047746)" class="pcb-silkscreen-text pcb-silkscreen-top" data-pcb-silkscreen-text-id="pcb_component_4" stroke="none">C8</text><text x="0" y="0" dx="0" dy="0" fill="#f2eda1" font-family="Arial, sans-serif" font-size="6.765560385066246" text-anchor="middle" dominant-baseline="central" transform="matrix(1,0,0,1,496.8122452161732,475.2599804003411)" class="pcb-silkscreen-text pcb-silkscreen-top" data-pcb-silkscreen-text-id="pcb_component_5" stroke="none">C13</text><text x="0" y="0" dx="0" dy="0" fill="#f2eda1" font-family="Arial, sans-serif" font-size="6.765560385066246" text-anchor="middle" dominant-baseline="central" transform="matrix(1,0,0,1,496.7871142562869,525.1559882402047)" class="pcb-silkscreen-text pcb-silkscreen-top" data-pcb-silkscreen-text-id="pcb_component_6" stroke="none">C15</text><text x="0" y="0" dx="0" dy="0" fill="#f2eda1" font-family="Arial, sans-serif" font-size="6.765560385066246" text-anchor="middle" dominant-baseline="central" transform="matrix(1,0,0,1,496.76772349665833,583.0860990373344)" class="pcb-silkscreen-text pcb-silkscreen-top" data-pcb-silkscreen-text-id="pcb_component_7" stroke="none">C19</text><text x="0" y="0" dx="0" dy="0" fill="#f2eda1" font-family="Arial, sans-serif" font-size="6.765560385066246" text-anchor="middle" dominant-baseline="central" transform="matrix(1,0,0,1,582.9121032906214,316.2693113512843)" class="pcb-silkscreen-text pcb-silkscreen-top" data-pcb-silkscreen-text-id="pcb_component_8" stroke="none">C18</text><text x="0" y="0" dx="0" dy="0" fill="#f2eda1" font-family="Arial, sans-serif" font-size="6.765560385066246" text-anchor="middle" dominant-baseline="central" transform="matrix(1,0,0,1,572.1963195213004,403.3759013090122)" class="pcb-silkscreen-text pcb-silkscreen-top" data-pcb-silkscreen-text-id="pcb_component_9" stroke="none">C7</text><text x="0" y="0" dx="0" dy="0" fill="#f2eda1" font-family="Arial, sans-serif" font-size="6.765560385066246" text-anchor="middle" dominant-baseline="central" transform="matrix(1,0,0,1,572.1206708401771,453.2719091488757)" class="pcb-silkscreen-text pcb-silkscreen-top" data-pcb-silkscreen-text-id="pcb_component_10" stroke="none">C9</text><text x="0" y="0" dx="0" dy="0" fill="#f2eda1" font-family="Arial, sans-serif" font-size="6.765560385066246" text-anchor="middle" dominant-baseline="central" transform="matrix(1,0,0,1,524.6499990977993,103.15314777041836)" class="pcb-silkscreen-text pcb-silkscreen-top" data-pcb-silkscreen-text-id="pcb_component_11" stroke="none">C10</text><text x="0" y="0" dx="0" dy="0" fill="#f2eda1" font-family="Arial, sans-serif" font-size="6.765560385066246" text-anchor="middle" dominant-baseline="central" transform="matrix(1,0,0,1,563.9748188359969,65.94256565255401)" class="pcb-silkscreen-text pcb-silkscreen-top" data-pcb-silkscreen-text-id="pcb_component_12" stroke="none">C11</text><g><rect class="pcb-hole-outer-pad" fill="rgb(200, 52, 52)" x="119.02139157449724" y="186.5185485914347" width="50.741702887996844" height="33.82780192533123"/><circle class="pcb-hole-inner" fill="#FF26E2" cx="155.04800062497503" cy="203.43244955410032" r="7.188407909132886"/></g><g><rect class="pcb-hole-outer-pad" fill="rgb(200, 52, 52)" x="119.02139157449724" y="229.47985703660535" width="50.741702887996844" height="33.82780192533123"/><circle class="pcb-hole-inner" fill="#FF26E2" cx="155.04800062497503" cy="246.39375799927097" r="7.188407909132886"/></g><g><rect class="pcb-hole-outer-pad" fill="rgb(200, 52, 52)" x="119.02139157449724" y="272.44116548177607" width="50.741702887996844" height="33.82780192533123"/><circle class="pcb-hole-inner" fill="#FF26E2" cx="155.04800062497503" cy="289.35506644444166" r="7.188407909132886"/></g><g><rect class="pcb-hole-outer-pad" fill="rgb(200, 52, 52)" x="119.02139157449724" y="315.40247392694675" width="50.741702887996844" height="33.82780192533123"/><circle class="pcb-hole-inner" fill="#FF26E2" cx="155.04800062497503" cy="332.31637488961235" r="7.188407909132886"/></g><g><rect class="pcb-hole-outer-pad" fill="rgb(200, 52, 52)" x="119.02139157449724" y="358.3637823721174" width="50.741702887996844" height="33.82780192533123"/><circle class="pcb-hole-inner" fill="#FF26E2" cx="155.04800062497503" cy="375.277683334783" r="7.188407909132886"/></g><g><rect class="pcb-hole-outer-pad" fill="rgb(200, 52, 52)" x="119.02139157449724" y="401.325090817288" width="50.741702887996844" height="33.82780192533123"/><circle class="pcb-hole-inner" fill="#FF26E2" cx="155.04800062497503" cy="418.2389917799536" r="7.188407909132886"/></g><g><rect class="pcb-hole-outer-pad" fill="rgb(200, 52, 52)" x="119.02139157449724" y="444.28639926245876" width="50.741702887996844" height="33.82780192533123"/><circle class="pcb-hole-inner" fill="#FF26E2" cx="155.04800062497503" cy="461.20030022512435" r="7.188407909132886"/></g><g><rect class="pcb-hole-outer-pad" fill="rgb(200, 52, 52)" x="398.1007574584799" y="186.5185485914347" width="50.741702887996844" height="33.82780192533123"/><circle class="pcb-hole-inner" fill="#FF26E2" cx="412.815851295999" cy="203.43244955410032" r="7.188407909132886"/></g><g><rect class="pcb-hole-outer-pad" fill="rgb(200, 52, 52)" x="398.1007574584799" y="229.47985703660535" width="50.741702887996844" height="33.82780192533123"/><circle class="pcb-hole-inner" fill="#FF26E2" cx="412.815851295999" cy="246.39375799927097" r="7.188407909132886"/></g><g><rect class="pcb-hole-outer-pad" fill="rgb(200, 52, 52)" x="398.1007574584799" y="272.44116548177607" width="50.741702887996844" height="33.82780192533123"/><circle class="pcb-hole-inner" fill="#FF26E2" cx="412.815851295999" cy="289.35506644444166" r="7.188407909132886"/></g><g><rect class="pcb-hole-outer-pad" fill="rgb(200, 52, 52)" x="398.1007574584799" y="315.40247392694675" width="50.741702887996844" height="33.82780192533123"/><circle class="pcb-hole-inner" fill="#FF26E2" cx="412.815851295999" cy="332.31637488961235" r="7.188407909132886"/></g><g><rect class="pcb-hole-outer-pad" fill="rgb(200, 52, 52)" x="398.1007574584799" y="358.3637823721174" width="50.741702887996844" height="33.82780192533123"/><circle class="pcb-hole-inner" fill="#FF26E2" cx="412.815851295999" cy="375.277683334783" r="7.188407909132886"/></g><g><rect class="pcb-hole-outer-pad" fill="rgb(200, 52, 52)" x="398.1007574584799" y="401.325090817288" width="50.741702887996844" height="33.82780192533123"/><circle class="pcb-hole-inner" fill="#FF26E2" cx="412.815851295999" cy="418.2389917799536" r="7.188407909132886"/></g><g><rect class="pcb-hole-outer-pad" fill="rgb(200, 52, 52)" x="398.1007574584799" y="444.28639926245876" width="50.741702887996844" height="33.82780192533123"/><circle class="pcb-hole-inner" fill="#FF26E2" cx="412.815851295999" cy="461.20030022512435" r="7.188407909132886"/></g><circle class="pcb-hole" cx="354.8785978653097" cy="66.47163078327594" r="5.919865336932965" fill="#FF26E2"/><circle class="pcb-hole" cx="354.8785978653097" cy="109.43293922844659" r="5.919865336932965" fill="#FF26E2"/><circle class="pcb-hole" cx="354.8785978653097" cy="152.39424767361726" r="5.919865336932965" fill="#FF26E2"/><circle class="pcb-hole" cx="354.8785978653097" cy="195.35555611878792" r="5.919865336932965" fill="#FF26E2"/><circle class="pcb-hole" cx="354.8785978653097" cy="238.31686456395857" r="5.919865336932965" fill="#FF26E2"/><circle class="pcb-hole" cx="354.8785978653097" cy="281.2781730091292" r="5.919865336932965" fill="#FF26E2"/><circle class="pcb-hole" cx="354.8785978653097" cy="324.2394814542999" r="5.919865336932965" fill="#FF26E2"/><circle class="pcb-hole" cx="655.6077569815043" cy="66.47163078327594" r="5.919865336932965" fill="#FF26E2"/><circle class="pcb-hole" cx="655.6077569815043" cy="109.43293922844659" r="5.919865336932965" fill="#FF26E2"/><circle class="pcb-hole" cx="655.6077569815043" cy="152.39424767361726" r="5.919865336932965" fill="#FF26E2"/><circle class="pcb-hole" cx="655.6077569815043" cy="195.35555611878792" r="5.919865336932965" fill="#FF26E2"/><circle class="pcb-hole" cx="655.6077569815043" cy="238.31686456395857" r="5.919865336932965" fill="#FF26E2"/><circle class="pcb-hole" cx="655.6077569815043" cy="281.2781730091292" r="5.919865336932965" fill="#FF26E2"/><circle class="pcb-hole" cx="655.6077569815043" cy="324.2394814542999" r="5.919865336932965" fill="#FF26E2"/></svg>